<?xml version="1.0" standalone="no"?><!DOCTYPE svg PUBLIC "-//W3C//DTD SVG 1.1//EN" "http://www.w3.org/Graphics/SVG/1.1/DTD/svg11.dtd"><svg t="1638256670806" class="icon" viewBox="0 0 1024 1024" version="1.1" xmlns="http://www.w3.org/2000/svg" p-id="8878" xmlns:xlink="http://www.w3.org/1999/xlink" width="200" height="200"><defs><style type="text/css"></style></defs><path d="M746.666667 512a64 64 0 1 1-64-64 64 64 0 0 1 64 64z m149.333333-170.666667v341.333334h-85.333333a213.333333 213.333333 0 0 1-256 0H213.333333v85.333333H128V256h85.333333v85.333333h341.333334a213.333333 213.333333 0 0 1 256 0h85.333333z m-426.666667 170.666667a211.626667 211.626667 0 0 1 17.92-85.333333H213.333333v170.666666h273.92a211.626667 211.626667 0 0 1-17.92-85.333333z m341.333334 0a128 128 0 1 0-128 128 128 128 0 0 0 128-128z" p-id="8879"></path></svg>